<svg xmlns="http://www.w3.org/2000/svg" width="24" height="24" viewBox="0 0 24 24">
    <g>
        <path fill="none" d="M0 0H24V24H0z" transform="translate(-816 -176) translate(816 176)"/>
        <path fill="#a2b7f8" d="M12 33a11 11 0 1 0 11 11 11 11 0 0 0-11-11zm6 16.037a.964.964 0 0 1-.963.963A11.049 11.049 0 0 1 6 38.963.964.964 0 0 1 6.963 38h2.2a.964.964 0 0 1 .963.963 6.818 6.818 0 0 0 .342 2.143.971.971 0 0 1-.239.983L9.244 43.4a7.456 7.456 0 0 0 3.356 3.355l1.349-1.019a.979.979 0 0 1 .951-.2 6.813 6.813 0 0 0 2.14.341.964.964 0 0 1 .96.963z" transform="translate(-816 -176) translate(816 144)"/>
    </g>
</svg>
