<svg xmlns="http://www.w3.org/2000/svg" width="32" height="32" viewBox="0 0 32 32">
    <defs>
        <style>
            .cls-1{fill:#fff}
        </style>
    </defs>
    <g id="Group_394" transform="translate(-111 -92)">
        <path id="Path_6978" d="M119 96v8h3v-9h18v26h-18v-8h-3v7a4 4 0 0 0 4 4h16a4 4 0 0 0 4-4V96a4 4 0 0 0-4-4h-16a4 4 0 0 0-4 4z" class="cls-1"/>
        <path id="Path_6979" d="M128 112.869a1.363 1.363 0 0 0 2.292 1l5.763-5.366-5.763-5.366a1.363 1.363 0 0 0-2.292 1 1.363 1.363 0 0 0 .434 1l2.01 1.871H112.5a1.5 1.5 0 0 0-1.5 1.5 1.5 1.5 0 0 0 1.5 1.5h17.944l-2.01 1.871a1.363 1.363 0 0 0-.434.99z" class="cls-1"/>
    </g>
</svg>
