<svg xmlns="http://www.w3.org/2000/svg" width="24" height="24" viewBox="0 0 24 24">
    <g>
        <g>
            <path fill="none" d="M0 0H24V24H0z" opacity="0.2" transform="translate(-516 -437) translate(-1) translate(517 437)"/>
            <path fill="#c1c3ca" d="M660.279 621.042a6 6 0 0 0-3.869 9.82c.663.786 1.348 1.553 1.941 2.392L661 637l2.653-3.752c.581-.822 1.245-1.58 1.9-2.345a6 6 0 0 0-5.275-9.861zM661 629a2 2 0 1 1 2-2 2 2 0 0 1-2 2z" transform="translate(-516 -437) translate(-1) translate(-132 -180)"/>
        </g>
    </g>
</svg>
