<svg xmlns="http://www.w3.org/2000/svg" width="24" height="24" viewBox="0 0 24 24">
    <g>
        <g>
            <path fill="none" d="M0 0H24V24H0z" opacity="0.2" transform="translate(-516 -437) translate(-1) translate(517 437)"/>
            <path fill="#c1c3ca" d="M700 626a8 8 0 1 0 8 8 8 8 0 0 0-8-8zm5.91 7h-1.454a9.428 9.428 0 0 0-1.312-4.1 5.994 5.994 0 0 1 2.766 4.1zm-6.91 0h-1.44a7.38 7.38 0 0 1 1.44-3.716zm0 2v3.716a7.38 7.38 0 0 1-1.44-3.716zm2 0h1.44a7.38 7.38 0 0 1-1.44 3.716zm0-2v-3.716a7.38 7.38 0 0 1 1.44 3.716zm-4.144-4.1a9.428 9.428 0 0 0-1.312 4.1h-1.454a5.994 5.994 0 0 1 2.766-4.1zm-2.766 6.1h1.454a9.428 9.428 0 0 0 1.312 4.1 5.994 5.994 0 0 1-2.766-4.1zm9.054 4.1a9.428 9.428 0 0 0 1.312-4.1h1.454a5.994 5.994 0 0 1-2.766 4.1z" transform="translate(-516 -437) translate(-1) translate(-171 -185)"/>
        </g>
    </g>
</svg>
